
<svg version="1.0" xmlns="http://www.w3.org/2000/svg"
 width="2500.000000pt" height="2500.000000pt" viewBox="0 0 2500.000000 2500.000000"
 preserveAspectRatio="xMidYMid meet">

<g transform="translate(0.000000,2500.000000) scale(0.100000,-0.100000)"
fill="#000000" stroke="none">
<path d="M8820 22865 c-303 -48 -567 -188 -783 -414 -177 -186 -290 -400 -349
-659 -22 -96 -22 -107 -28 -1237 -3 -627 -7 -1141 -8 -1142 -1 -2 -33 -3 -70
-3 l-69 0 -6 -152 c-9 -197 -9 -2908 0 -3066 l6 -122 67 0 68 0 6 -31 c8 -40
8 -437 0 -466 -5 -20 -14 -22 -73 -25 l-66 -3 -7 -45 c-12 -84 -8 -1242 5
-1280 12 -34 13 -35 77 -40 l65 -5 5 -5435 5 -5435 23 -97 c64 -278 178 -486
376 -684 201 -201 398 -308 696 -380 72 -18 241 -19 3765 -22 4125 -3 3797 -8
4030 69 487 162 838 575 920 1084 22 136 22 18314 0 18450 -82 509 -433 922
-920 1084 -231 77 92 71 -3991 70 -3011 -1 -3674 -3 -3744 -14z m1502 -618 l3
-182 32 -66 c39 -79 102 -140 181 -177 l57 -27 1905 0 1905 0 66 32 c79 39
140 102 177 181 25 54 27 67 30 240 l4 183 806 -3 807 -3 100 -28 c429 -120
749 -462 830 -890 13 -70 15 -1082 15 -9007 0 -7925 -2 -8937 -15 -9007 -76
-403 -369 -736 -760 -867 -178 -60 83 -56 -3889 -56 -4010 0 -3715 -5 -3904
61 -175 61 -315 152 -448 291 -161 168 -259 362 -298 587 -15 87 -16 841 -16
8991 0 8150 1 8904 16 8991 39 225 137 419 298 587 134 140 274 231 451 292
167 57 177 58 942 59 l701 1 4 -183z m7105 -619 c17 -89 18 -486 18 -9128 0
-8642 -1 -9039 -18 -9128 -10 -51 -28 -126 -41 -165 l-24 -72 0 9365 0 9365
24 -72 c13 -39 31 -114 41 -165z"/>
</g>
</svg>
